<svg width="32" height="27" viewBox="0 0 32 27" fill="none" xmlns="http://www.w3.org/2000/svg">
<path d="M31.2436 8.76857L8.13142 0.20593C7.8358 0.0966903 7.50736 0.247853 7.39836 0.543712C7.39812 0.543951 7.39812 0.544191 7.39788 0.54443L4.83937 7.50872C4.73061 7.80458 4.88225 8.13277 5.17811 8.24154H5.17858L7.8576 9.22517L7.26732 10.8333C7.1588 11.1292 7.31044 11.4569 7.6063 11.5657L12.9653 13.5332L12.5714 14.6052C12.2135 15.5654 12.5475 16.6463 13.385 17.2368V20.1499H5.70418C5.33238 19.2999 4.57154 18.6828 3.66288 18.4945V17.2958C3.66288 16.9805 3.40751 16.7249 3.09201 16.7249H0.79054C0.475277 16.7249 0.219666 16.9805 0.219666 17.2958V26.429C0.219666 26.7445 0.475277 26.9999 0.79054 26.9999H3.09201C3.40751 26.9999 3.66288 26.7445 3.66288 26.429V25.2305C4.57154 25.042 5.33238 24.4251 5.70418 23.5749H13.385V24.1458C13.385 25.0916 14.1516 25.8584 15.0974 25.8584C16.0432 25.8584 16.81 25.0916 16.81 24.1458V17.8221C17.3289 17.5648 17.7297 17.1185 17.9295 16.5747L18.3233 15.5026L23.1462 17.2723C23.2092 17.2955 23.2755 17.3073 23.3426 17.3073C23.5819 17.3073 23.7961 17.158 23.8787 16.9333L24.0927 16.3504C25.9502 16.7 27.7393 15.4775 28.0886 13.6202C28.2177 12.9338 28.1338 12.2245 27.8483 11.5872L31.3087 9.81042C31.5893 9.66669 31.7002 9.32268 31.5564 9.04215C31.4913 8.9147 31.3806 8.81648 31.2464 8.76689L31.2436 8.76857ZM14.5265 17.7569L14.9992 17.9282C15.2143 18.0053 15.44 18.0497 15.6683 18.0595V20.1499H14.5265V17.7569ZM2.52137 25.8584H1.36141V17.8666H2.52137V25.8584ZM4.80463 22.4334C4.80367 23.1588 4.34659 23.8054 3.66288 24.0483V19.6768C4.34659 19.9194 4.80367 20.566 4.80463 21.2916V22.4334ZM5.96411 21.2916H15.6683V22.4334H5.96411V21.2916ZM15.0974 24.7166C14.7821 24.7166 14.5265 24.461 14.5265 24.1458V23.5749H15.6683V24.1458C15.6683 24.461 15.4126 24.7166 15.0974 24.7166ZM17.2518 15.1095L16.8579 16.1816C16.6404 16.7728 15.9847 17.0761 15.393 16.859L14.3193 16.4657C13.7276 16.2484 13.4238 15.5925 13.6411 15.0005C13.6411 15.0005 13.6411 15.0005 13.6411 15.0003L14.0352 13.929L16.9286 14.9912L17.2518 15.1095ZM23.0041 16.0057L8.53556 10.6927L8.92964 9.62069L17.5031 12.769C17.706 12.8428 17.9335 12.7966 18.0914 12.649L19.6934 11.1409L24.1847 12.7906L23.0041 16.0057ZM26.8637 13.7747C26.5019 14.7499 25.5291 15.3594 24.4939 15.259L25.376 12.8562L26.8167 12.1143C27.0421 12.6418 27.0589 13.2354 26.8637 13.7747ZM24.9369 11.8009C24.9067 11.8036 24.8768 11.8088 24.8473 11.8167L19.7578 9.94793C19.5549 9.87343 19.3273 9.91966 19.1697 10.0677L17.5658 11.576L6.10784 7.36833L8.27204 1.47561L29.6304 9.38856L24.9369 11.8009Z" fill="#E3B873"/>
<path d="M11.388 7.75098L10.8845 9.11154M13.582 8.55589L13.0785 9.91645M15.7112 9.34782L15.2077 10.7084" stroke="#E3B873" stroke-width="0.958194" stroke-linecap="round"/>
</svg>
