<svg width="110" height="27" viewBox="0 0 110 27" fill="none" xmlns="http://www.w3.org/2000/svg">
<rect x="0.480331" y="12.646" width="30.6622" height="1.47882" rx="0.739412" fill="#E3B873"/>
<rect x="79.0523" y="12.646" width="30.6622" height="1.47882" rx="0.739412" fill="#E3B873"/>
<path d="M71.2436 8.76857L48.1314 0.20593C47.8358 0.0966903 47.5074 0.247853 47.3984 0.543712C47.3981 0.543951 47.3981 0.544191 47.3979 0.54443L44.8394 7.50872C44.7306 7.80458 44.8822 8.13277 45.1781 8.24154H45.1786L47.8576 9.22517L47.2673 10.8333C47.1588 11.1292 47.3104 11.4569 47.6063 11.5657L52.9653 13.5332L52.5714 14.6052C52.2135 15.5654 52.5475 16.6463 53.385 17.2368V20.1499H45.7042C45.3324 19.2999 44.5715 18.6828 43.6629 18.4945V17.2958C43.6629 16.9805 43.4075 16.7249 43.092 16.7249H40.7905C40.4753 16.7249 40.2197 16.9805 40.2197 17.2958V26.429C40.2197 26.7445 40.4753 26.9999 40.7905 26.9999H43.092C43.4075 26.9999 43.6629 26.7445 43.6629 26.429V25.2305C44.5715 25.042 45.3324 24.4251 45.7042 23.5749H53.385V24.1458C53.385 25.0916 54.1516 25.8584 55.0974 25.8584C56.0432 25.8584 56.81 25.0916 56.81 24.1458V17.8221C57.3289 17.5648 57.7297 17.1185 57.9295 16.5747L58.3233 15.5026L63.1462 17.2723C63.2092 17.2955 63.2755 17.3073 63.3426 17.3073C63.5819 17.3073 63.7961 17.158 63.8787 16.9333L64.0927 16.3504C65.9502 16.7 67.7393 15.4775 68.0886 13.6202C68.2177 12.9338 68.1338 12.2245 67.8483 11.5872L71.3087 9.81042C71.5893 9.66669 71.7002 9.32268 71.5564 9.04215C71.4913 8.9147 71.3806 8.81648 71.2464 8.76689L71.2436 8.76857ZM54.5265 17.7569L54.9992 17.9282C55.2143 18.0053 55.44 18.0497 55.6683 18.0595V20.1499H54.5265V17.7569ZM42.5214 25.8584H41.3614V17.8666H42.5214V25.8584ZM44.8046 22.4334C44.8037 23.1588 44.3466 23.8054 43.6629 24.0483V19.6768C44.3466 19.9194 44.8037 20.566 44.8046 21.2916V22.4334ZM45.9641 21.2916H55.6683V22.4334H45.9641V21.2916ZM55.0974 24.7166C54.7821 24.7166 54.5265 24.461 54.5265 24.1458V23.5749H55.6683V24.1458C55.6683 24.461 55.4126 24.7166 55.0974 24.7166ZM57.2518 15.1095L56.8579 16.1816C56.6404 16.7728 55.9847 17.0761 55.393 16.859L54.3193 16.4657C53.7276 16.2484 53.4238 15.5925 53.6411 15.0005C53.6411 15.0005 53.6411 15.0005 53.6411 15.0003L54.0352 13.929L56.9286 14.9912L57.2518 15.1095ZM63.0041 16.0057L48.5356 10.6927L48.9296 9.62069L57.5031 12.769C57.706 12.8428 57.9335 12.7966 58.0914 12.649L59.6934 11.1409L64.1847 12.7906L63.0041 16.0057ZM66.8637 13.7747C66.5019 14.7499 65.5291 15.3594 64.4939 15.259L65.376 12.8562L66.8167 12.1143C67.0421 12.6418 67.0589 13.2354 66.8637 13.7747ZM64.9369 11.8009C64.9067 11.8036 64.8768 11.8088 64.8473 11.8167L59.7578 9.94793C59.5549 9.87343 59.3273 9.91966 59.1697 10.0677L57.5658 11.576L46.1078 7.36833L48.272 1.47561L69.6304 9.38856L64.9369 11.8009Z" fill="#E3B873"/>
<path d="M51.388 7.75098L50.8845 9.11154M53.582 8.55589L53.0785 9.91645M55.7111 9.34782L55.2077 10.7084" stroke="#E3B873" stroke-width="0.958194" stroke-linecap="round"/>
</svg>
